<?xml version="1.0" standalone="no"?><!DOCTYPE svg PUBLIC "-//W3C//DTD SVG 1.1//EN" "http://www.w3.org/Graphics/SVG/1.1/DTD/svg11.dtd"><svg t="1612937664718" class="icon" viewBox="0 0 1024 1024" version="1.1" xmlns="http://www.w3.org/2000/svg" p-id="1870" xmlns:xlink="http://www.w3.org/1999/xlink" width="200" height="200"><defs><style type="text/css"></style></defs><path d="M936.129 614.608l-353.505 0.004c-12.402-0.004-24.808 6.199-31.008 12.399 6.203-43.407 24.805-86.822 55.814-117.831 80.627-80.626 213.962-83.724 297.687 0 34.11 34.11 52.716 77.522 55.818 117.836-0.001-6.205-12.403-12.404-24.806-12.408zM448.087 392.551c-88.922 0-164.163-71.822-164.163-164.164s71.82-164.164 164.163-164.164c88.923 0 164.164 71.822 164.164 164.164s-75.242 164.164-164.164 164.164z" p-id="1871"></path><path d="M558.657 471.116c-51.3 45.351-82.08 117.154-82.08 192.741 0 86.919 37.621 158.725 95.759 204.077-47.88-11.34-86.601-26.455-144.743-26.455-201.784 7.56-362.528 154.945-362.528-68.028 0-222.972 160.743-325.011 359.107-325.011 54.722-0.001 90.026 7.56 134.485 22.676z" p-id="1872"></path><path d="M576.423 704.536l353.5-0.001c12.406 0 24.808-6.199 31.011-12.402-6.198 43.411-24.808 86.826-58.919 120.936-80.623 80.623-213.961 83.725-297.687 0-34.109-34.109-52.712-77.524-55.814-117.838 3.103 3.102 15.503 9.305 27.909 9.305z" p-id="1873"></path></svg>